<?xml version="1.0" standalone="no"?>
<!DOCTYPE svg PUBLIC "-//W3C//DTD SVG 20010904//EN"
 "http://www.w3.org/TR/2001/REC-SVG-20010904/DTD/svg10.dtd">
<svg version="1.0" xmlns="http://www.w3.org/2000/svg"
 width="720.000000pt" height="720.000000pt" viewBox="0 0 720.000000 720.000000"
 preserveAspectRatio="xMidYMid meet">
<metadata>
Created by potrace 1.11, written by Peter Selinger 2001-2013
</metadata>
<g transform="translate(0.000000,720.000000) scale(0.100000,-0.100000)"
fill="#000000" stroke="none">
<path d="M3385 7193 c-778 -51 -1512 -344 -2095 -834 -129 -108 -347 -325
-441 -439 -715 -859 -992 -1946 -774 -3035 275 -1375 1333 -2465 2706 -2789
277 -66 504 -90 819 -90 275 0 436 14 675 60 877 168 1652 649 2192 1360 855
1124 969 2657 292 3899 -544 997 -1534 1681 -2664 1839 -220 31 -503 43 -710
29z m640 -158 c454 -62 872 -201 1250 -416 166 -94 194 -114 180 -128 -7 -6
-45 12 -110 51 -417 249 -856 400 -1350 465 -190 24 -622 24 -810 -1 -784
-103 -1461 -431 -2000 -971 -532 -531 -865 -1205 -972 -1965 -26 -182 -25
-692 0 -875 82 -580 289 -1105 615 -1559 135 -188 364 -436 542 -589 42 -36
52 -49 42 -59 -9 -9 -18 -6 -39 13 -186 169 -254 235 -339 330 -322 361 -553
762 -704 1219 -180 546 -222 1100 -124 1669 194 1138 964 2111 2030 2566 317
136 680 227 1049 264 138 14 599 6 740 -14z m-194 -125 c504 -40 995 -194
1419 -446 109 -65 128 -80 115 -93 -6 -5 -51 16 -115 55 -1031 625 -2354 611
-3388 -36 -356 -223 -685 -536 -926 -883 -631 -908 -756 -2063 -335 -3089 188
-456 479 -863 856 -1195 60 -53 78 -74 69 -82 -15 -12 -158 111 -297 256 -878
917 -1145 2272 -682 3453 331 842 1008 1517 1852 1845 323 125 602 187 996
218 95 8 311 6 436 -3z m124 -194 c234 -31 492 -94 702 -171 177 -66 576 -270
599 -306 19 -31 -20 -22 -91 22 -175 109 -421 222 -630 291 -982 323 -2063
130 -2877 -513 -116 -92 -373 -346 -465 -459 -771 -954 -907 -2249 -352 -3340
169 -333 414 -652 677 -884 63 -55 99 -93 95 -102 -8 -22 -51 14 -224 186
-176 175 -282 303 -411 500 -103 155 -245 434 -306 597 -214 577 -258 1192
-126 1783 172 769 644 1458 1299 1895 451 301 963 474 1530 519 103 8 464 -3
580 -18z m-132 -151 c411 -25 906 -182 1272 -405 85 -51 81 -48 68 -61 -7 -7
-35 5 -89 37 -612 364 -1362 490 -2063 348 -508 -102 -983 -338 -1362 -677
-919 -821 -1222 -2105 -768 -3257 147 -375 355 -688 656 -989 106 -105 171
-177 165 -183 -12 -12 -180 139 -294 266 -610 677 -875 1580 -727 2476 223
1348 1367 2372 2734 2449 136 8 213 7 408 -4z m157 -140 c306 -48 559 -125
819 -250 217 -105 337 -185 279 -185 -5 0 -47 22 -92 49 -297 179 -655 303
-1031 358 -150 21 -540 24 -695 5 -440 -56 -852 -208 -1209 -446 -180 -120
-269 -193 -422 -346 -425 -423 -686 -941 -784 -1555 -26 -158 -31 -528 -11
-705 52 -449 201 -860 444 -1225 126 -189 224 -306 395 -471 91 -89 133 -135
127 -144 -16 -27 -281 236 -431 430 -562 722 -732 1702 -448 2576 343 1057
1265 1800 2384 1924 125 14 553 4 675 -15z m-199 -136 c397 -31 775 -148 1122
-347 53 -31 97 -59 97 -63 0 -23 -30 -13 -127 43 -827 476 -1882 454 -2699
-58 -224 -140 -490 -375 -648 -574 -228 -286 -402 -632 -496 -985 -160 -600
-93 -1262 186 -1830 131 -269 272 -463 502 -694 106 -107 159 -168 153 -174
-19 -19 -234 190 -376 368 -565 705 -733 1666 -442 2521 119 349 308 666 558
940 549 600 1357 918 2170 853z m1277 -774 c294 -220 549 -527 712 -860 466
-948 266 -2074 -497 -2805 -191 -184 -367 -305 -618 -426 -338 -163 -665 -237
-1045 -237 -383 0 -720 78 -1055 243 -209 103 -495 297 -495 335 0 23 11 18
75 -33 333 -267 742 -440 1178 -497 153 -20 441 -20 594 0 532 70 1011 303
1384 676 645 644 863 1598 563 2460 -168 484 -493 907 -911 1188 -61 40 -70
51 -57 64 9 9 50 -16 172 -108z m-170 -7 c470 -319 800 -789 938 -1334 54
-214 68 -333 68 -564 0 -373 -71 -683 -229 -1005 -337 -685 -975 -1147 -1740
-1261 -161 -24 -465 -24 -629 0 -424 61 -791 223 -1143 503 -16 13 -20 22 -14
32 7 11 19 6 58 -26 223 -188 582 -363 893 -437 286 -69 653 -76 945 -20 632
122 1177 503 1509 1054 388 643 426 1453 101 2135 -169 353 -441 670 -762 886
-40 28 -71 54 -68 59 10 16 24 12 73 -22z m-53 -122 c298 -198 550 -491 715
-831 154 -314 221 -608 221 -960 0 -204 -19 -357 -66 -542 -153 -597 -561
-1106 -1110 -1388 -311 -159 -641 -238 -995 -238 -443 0 -838 120 -1202 363
-168 112 -217 154 -201 171 9 9 23 2 65 -34 190 -162 512 -325 779 -396 220
-58 282 -65 554 -66 214 0 267 3 370 22 213 39 398 100 588 194 905 447 1372
1466 1121 2447 -127 498 -430 937 -849 1227 -89 62 -89 61 -80 74 7 13 7 13
90 -43z m-79 -74 c100 -65 256 -196 347 -291 152 -160 257 -310 355 -507 289
-577 291 -1250 7 -1831 -310 -635 -906 -1056 -1618 -1144 -143 -17 -482 -6
-610 20 -386 79 -643 201 -964 458 -9 7 -13 19 -9 28 4 12 21 3 82 -45 299
-238 645 -382 1034 -430 108 -13 338 -13 455 0 864 99 1572 731 1759 1571 36
162 47 267 47 452 0 717 -352 1346 -970 1733 -5 4 10 24 18 24 4 0 34 -17 67
-38z m-25 -93 c413 -283 697 -716 804 -1229 36 -170 45 -467 21 -644 -112
-800 -687 -1444 -1465 -1641 -450 -113 -934 -63 -1348 142 -189 93 -431 264
-413 293 6 9 26 -2 76 -43 244 -196 546 -331 879 -394 127 -24 436 -28 579 -9
992 139 1704 979 1673 1971 -13 416 -142 783 -391 1113 -124 164 -342 366
-483 449 -43 25 -49 33 -36 46 10 10 9 11 104 -54z m-78 -81 c163 -109 353
-295 470 -458 87 -124 204 -356 250 -501 151 -471 119 -957 -93 -1394 -285
-587 -846 -978 -1499 -1044 -468 -48 -944 88 -1319 379 -76 58 -91 74 -81 86
9 11 19 7 58 -27 25 -23 93 -72 150 -110 658 -435 1525 -401 2146 86 100 78
264 246 336 345 262 355 389 786 358 1218 -10 142 -21 210 -56 347 -109 423
-376 801 -736 1045 -46 31 -81 62 -79 69 5 16 20 10 95 -41z m-783 -173 c570
-125 992 -570 1086 -1145 19 -116 13 -388 -11 -494 -94 -415 -362 -764 -731
-950 -113 -57 -273 -110 -393 -130 -122 -21 -340 -21 -462 0 -417 70 -799 347
-990 717 -63 122 -93 203 -127 337 -25 97 -27 121 -27 310 0 189 2 213 27 310
32 125 62 208 113 309 200 399 576 674 1020 747 107 18 394 11 495 -11z"/>
<path d="M3439 4017 c-176 -61 -289 -220 -289 -406 0 -182 87 -322 250 -400
72 -35 79 -36 185 -36 103 0 114 2 177 32 343 162 343 635 1 796 -59 27 -81
32 -163 34 -79 3 -106 0 -161 -20z m262 -13 c115 -34 207 -115 262 -232 29
-61 32 -75 32 -167 0 -92 -3 -106 -32 -167 -92 -195 -300 -290 -501 -229 -114
34 -206 116 -261 231 -23 49 -26 67 -26 165 0 105 2 114 33 178 55 111 164
201 275 227 56 14 161 11 218 -6z"/>
<path d="M3490 3834 c-58 -25 -99 -63 -126 -116 -22 -44 -26 -61 -22 -123 3
-59 9 -81 33 -121 43 -69 108 -107 191 -112 86 -6 139 15 197 77 116 124 77
322 -78 392 -49 23 -146 24 -195 3z"/>
</g>
</svg>
